<svg width="86" height="60" viewBox="0 0 86 60" fill="none" xmlns="http://www.w3.org/2000/svg">
<path d="M0.703124 26L8.68358 0.687535H14.8887L22.8691 26H18.5097L11.2676 3.28909H12.2168L5.06249 26H0.703124ZM5.15038 20.5156V16.5606H18.4394V20.5156H5.15038ZM34.0276 34.9648C32.9729 34.9648 31.9593 34.8008 30.9866 34.4726C30.0257 34.1445 29.1585 33.6699 28.3851 33.0488C27.6116 32.4394 26.9788 31.7012 26.4866 30.834L30.389 28.9004C30.7522 29.5918 31.262 30.1016 31.9183 30.4297C32.5862 30.7695 33.2952 30.9394 34.0452 30.9394C34.9241 30.9394 35.7093 30.7812 36.4007 30.4648C37.0921 30.1602 37.6253 29.7031 38.0003 29.0937C38.387 28.4961 38.5686 27.7461 38.5452 26.8437V21.4473H39.0725V7.01565H42.7815V26.9141C42.7815 27.3945 42.7581 27.8516 42.7112 28.2852C42.6761 28.7305 42.6116 29.1641 42.5179 29.5859C42.2366 30.8164 41.6975 31.8242 40.9007 32.6094C40.1038 33.4062 39.1136 33.998 37.93 34.3848C36.7581 34.7715 35.4573 34.9648 34.0276 34.9648ZM33.6585 26.5273C31.9124 26.5273 30.389 26.0879 29.0882 25.209C27.7874 24.3301 26.7796 23.1348 26.0648 21.6231C25.3499 20.1113 24.9925 18.4063 24.9925 16.5078C24.9925 14.586 25.3499 12.875 26.0648 11.375C26.7913 9.8633 27.8167 8.67385 29.1409 7.80666C30.4651 6.92776 32.0237 6.48831 33.8167 6.48831C35.6214 6.48831 37.1331 6.92776 38.3518 7.80666C39.5823 8.67385 40.514 9.8633 41.1468 11.375C41.7796 12.8867 42.096 14.5977 42.096 16.5078C42.096 18.3945 41.7796 20.0996 41.1468 21.6231C40.514 23.1348 39.5706 24.3301 38.3167 25.209C37.0628 26.0879 35.5101 26.5273 33.6585 26.5273ZM34.3089 22.7305C35.4456 22.7305 36.3597 22.4727 37.0511 21.957C37.7542 21.4297 38.264 20.6973 38.5804 19.7598C38.9085 18.8223 39.0725 17.7383 39.0725 16.5078C39.0725 15.2656 38.9085 14.1817 38.5804 13.2559C38.264 12.3184 37.7659 11.5918 37.0862 11.0762C36.4065 10.5488 35.5276 10.2852 34.4495 10.2852C33.3128 10.2852 32.3753 10.5664 31.637 11.1289C30.8987 11.6797 30.3538 12.4297 30.0022 13.3789C29.6507 14.3164 29.4749 15.3594 29.4749 16.5078C29.4749 17.668 29.6448 18.7227 29.9847 19.6719C30.3362 20.6094 30.8694 21.3535 31.5843 21.9043C32.2991 22.4551 33.2073 22.7305 34.3089 22.7305ZM47.7108 26V7.01565H51.4549V11.6387L50.9979 11.041C51.2323 10.4082 51.5428 9.83401 51.9296 9.31838C52.328 8.79104 52.8026 8.35745 53.3534 8.0176C53.8221 7.7012 54.3378 7.4551 54.9003 7.27932C55.4745 7.09182 56.0604 6.98049 56.6581 6.94534C57.2557 6.89846 57.8358 6.9219 58.3983 7.01565V10.9707C57.8358 10.8067 57.1854 10.7539 56.4471 10.8125C55.7206 10.8711 55.0643 11.0762 54.4784 11.4278C53.8924 11.7442 53.412 12.1485 53.037 12.6406C52.6737 13.1328 52.4042 13.6953 52.2284 14.3281C52.0526 14.9492 51.9647 15.6231 51.9647 16.3496V26H47.7108ZM66.615 26.5273C65.2439 26.5273 64.0837 26.2695 63.1345 25.7539C62.1853 25.2266 61.4646 24.5293 60.9724 23.6621C60.4919 22.7949 60.2517 21.8398 60.2517 20.7969C60.2517 19.8828 60.404 19.0625 60.7087 18.3359C61.0134 17.5977 61.4822 16.9649 62.115 16.4375C62.7478 15.8985 63.5681 15.459 64.5759 15.1192C65.3376 14.8731 66.2282 14.6504 67.2478 14.4512C68.279 14.252 69.3923 14.0703 70.5876 13.9063C71.7946 13.7305 73.0544 13.543 74.3669 13.3438L72.8552 14.2051C72.8669 12.8926 72.5739 11.9258 71.9763 11.3047C71.3786 10.6836 70.3708 10.3731 68.9528 10.3731C68.0974 10.3731 67.2712 10.5723 66.4743 10.9707C65.6775 11.3692 65.1208 12.0547 64.8044 13.0274L60.9372 11.8145C61.406 10.209 62.2966 8.91994 63.6091 7.94729C64.9333 6.97464 66.7146 6.48831 68.9528 6.48831C70.6403 6.48831 72.1228 6.7637 73.4001 7.31448C74.6892 7.86526 75.6442 8.7676 76.2653 10.0215C76.6052 10.6895 76.8103 11.375 76.8806 12.0781C76.9509 12.7695 76.986 13.5254 76.986 14.3457V26H73.2771V21.8867L73.8923 22.5547C73.0368 23.9258 72.0349 24.9336 70.8864 25.5781C69.7497 26.2109 68.3259 26.5273 66.615 26.5273ZM67.4587 23.1523C68.4196 23.1523 69.24 22.9824 69.9196 22.6426C70.5993 22.3027 71.1384 21.8867 71.5368 21.3945C71.947 20.9024 72.2224 20.4395 72.363 20.0059C72.5857 19.4668 72.7087 18.8516 72.7321 18.1602C72.7673 17.457 72.7849 16.8887 72.7849 16.4551L74.0856 16.8418C72.8083 17.041 71.7126 17.2168 70.7985 17.3692C69.8845 17.5215 69.0993 17.668 68.4431 17.8086C67.7868 17.9375 67.2068 18.084 66.7028 18.2481C66.2107 18.4238 65.7946 18.6289 65.4548 18.8633C65.115 19.0977 64.8513 19.3672 64.6638 19.6719C64.488 19.9766 64.4001 20.334 64.4001 20.7441C64.4001 21.2129 64.5173 21.6289 64.7517 21.9922C64.9861 22.3438 65.3259 22.625 65.7712 22.8359C66.2282 23.0469 66.7907 23.1523 67.4587 23.1523Z" fill="#005250"/>
<path d="M5.92172 59V44.2079H0.243692V41.4542H14.5362V44.2079H8.85822V59H5.92172ZM16.7281 43.8423V41.1495H19.6646V43.8423H16.7281ZM16.7281 59V45.8406H19.6646V59H16.7281ZM29.0291 59.3655C27.6725 59.3655 26.515 59.065 25.5565 58.4639C24.5979 57.8546 23.8628 57.0261 23.3511 55.9782C22.8474 54.9303 22.5915 53.7444 22.5834 52.4203C22.5915 51.0719 22.8555 49.8778 23.3754 48.838C23.9034 47.7902 24.6507 46.9697 25.6174 46.3767C26.584 45.7756 27.7335 45.4751 29.0656 45.4751C30.5603 45.4751 31.8234 45.8528 32.8551 46.6082C33.8948 47.3556 34.5731 48.3791 34.8899 49.6788L31.9656 50.4708C31.7381 49.7641 31.3604 49.2158 30.8324 48.8258C30.3044 48.4278 29.7033 48.2288 29.0291 48.2288C28.2655 48.2288 27.636 48.4116 27.1405 48.7771C26.645 49.1345 26.2794 49.63 26.0439 50.2636C25.8083 50.8972 25.6905 51.6161 25.6905 52.4203C25.6905 53.6713 25.9707 54.6826 26.5312 55.4543C27.0917 56.226 27.9243 56.6118 29.0291 56.6118C29.8089 56.6118 30.4222 56.4331 30.869 56.0757C31.3239 55.7183 31.665 55.2025 31.8925 54.5282L34.8899 55.1984C34.4837 56.5387 33.773 57.5703 32.7576 58.2933C31.7422 59.0081 30.4994 59.3655 29.0291 59.3655ZM37.3072 59L37.3316 41.4542H40.3046V52.1766L45.1175 45.8406H48.7851L43.6798 52.4203L49.2238 59H45.3369L40.3046 52.664V59H37.3072ZM56.189 59.3655C54.8568 59.3655 53.6871 59.0772 52.6798 58.5004C51.6725 57.9237 50.8846 57.1236 50.316 56.1001C49.7555 55.0766 49.4753 53.8987 49.4753 52.5665C49.4753 51.1287 49.7514 49.8818 50.3038 48.8258C50.8562 47.7617 51.6238 46.9372 52.6067 46.3524C53.5896 45.7675 54.7268 45.4751 56.0184 45.4751C57.3831 45.4751 58.5406 45.7959 59.491 46.4377C60.4495 47.0713 61.1603 47.9689 61.6233 49.1305C62.0863 50.2921 62.261 51.6608 62.1473 53.2367H59.2351V52.1644C59.227 50.7348 58.9752 49.691 58.4797 49.033C57.9842 48.375 57.2044 48.046 56.1402 48.046C54.938 48.046 54.0445 48.4197 53.4596 49.167C52.8748 49.9062 52.5823 50.9906 52.5823 52.4203C52.5823 53.7525 52.8748 54.7841 53.4596 55.5152C54.0445 56.2463 54.8974 56.6118 56.0184 56.6118C56.7413 56.6118 57.3628 56.4534 57.8826 56.1366C58.4106 55.8117 58.8168 55.3446 59.1011 54.7354L62.001 55.6127C61.4974 56.7986 60.7176 57.7206 59.6616 58.3786C58.6137 59.0366 57.4562 59.3655 56.189 59.3655ZM51.6563 53.2367V51.0191H60.7095V53.2367H51.6563ZM72.5788 59C71.7096 59.1625 70.8567 59.2315 70.02 59.2071C69.1915 59.1909 68.4482 59.0406 67.7903 58.7563C67.1323 58.4639 66.6327 58.0049 66.2915 57.3794C65.991 56.8108 65.8326 56.23 65.8163 55.637C65.8001 55.0441 65.792 54.3739 65.792 53.6266V42.1852H68.7163V53.456C68.7163 53.984 68.7203 54.447 68.7285 54.845C68.7447 55.2431 68.83 55.568 68.9843 55.8198C69.2768 56.3072 69.7439 56.5793 70.3856 56.6362C71.0273 56.693 71.7584 56.6606 72.5788 56.5387V59ZM63.4038 48.1435V45.8406H72.5788V48.1435H63.4038ZM80.4895 59.3655C78.8649 59.3655 77.5449 59 76.5295 58.2689C75.5141 57.5378 74.8967 56.5103 74.6774 55.1862L77.6748 54.7232C77.8292 55.373 78.1703 55.8848 78.6983 56.2585C79.2263 56.6321 79.8924 56.819 80.6966 56.819C81.4033 56.819 81.9476 56.6809 82.3294 56.4047C82.7193 56.1204 82.9142 55.7345 82.9142 55.2471C82.9142 54.9466 82.8411 54.707 82.6949 54.5282C82.5568 54.3414 82.2481 54.1627 81.7689 53.9921C81.2896 53.8215 80.5545 53.6063 79.5635 53.3463C78.4587 53.0539 77.5814 52.7412 76.9316 52.4081C76.2817 52.067 75.8147 51.6649 75.5303 51.2018C75.246 50.7388 75.1039 50.1783 75.1039 49.5204C75.1039 48.6999 75.3191 47.9851 75.7497 47.3759C76.1802 46.7666 76.7813 46.2996 77.553 45.9746C78.3247 45.6416 79.2345 45.4751 80.2823 45.4751C81.3059 45.4751 82.2116 45.6335 82.9995 45.9503C83.7956 46.2671 84.4373 46.7179 84.9247 47.3028C85.4121 47.8876 85.7126 48.574 85.8263 49.362L82.8289 49.8981C82.7558 49.3376 82.4999 48.8949 82.0613 48.57C81.6308 48.245 81.054 48.0623 80.3311 48.0217C79.6406 47.981 79.0842 48.0866 78.6618 48.3385C78.2394 48.5822 78.0282 48.9274 78.0282 49.3742C78.0282 49.626 78.1135 49.8412 78.2841 50.0199C78.4547 50.1986 78.7958 50.3774 79.3076 50.5561C79.8275 50.7348 80.5991 50.9541 81.6227 51.214C82.6705 51.4821 83.5072 51.7908 84.1327 52.1401C84.7663 52.4812 85.2212 52.8914 85.4974 53.3707C85.7817 53.85 85.9238 54.4308 85.9238 55.1131C85.9238 56.4372 85.4405 57.4769 84.4739 58.2324C83.5153 58.9878 82.1872 59.3655 80.4895 59.3655Z" fill="#EFBA03"/>
</svg>
