<svg width="86" height="60" viewBox="0 0 86 60" fill="none" xmlns="http://www.w3.org/2000/svg">
<path d="M2.46093 26V0.687535H10.5293C10.7402 0.687535 11.1562 0.693394 11.7773 0.705114C12.4101 0.716832 13.0195 0.757847 13.6055 0.82816C15.6094 1.08597 17.3027 1.80081 18.6855 2.97269C20.0801 4.13284 21.1347 5.61526 21.8496 7.41995C22.5644 9.22463 22.9218 11.1992 22.9218 13.3438C22.9218 15.4883 22.5644 17.4629 21.8496 19.2676C21.1347 21.0723 20.0801 22.5606 18.6855 23.7324C17.3027 24.8926 15.6094 25.6016 13.6055 25.8594C13.0312 25.9297 12.4277 25.9707 11.7949 25.9824C11.1621 25.9941 10.7402 26 10.5293 26H2.46093ZM6.76757 22.0098H10.5293C10.8808 22.0098 11.3262 21.9981 11.8652 21.9746C12.416 21.9512 12.9023 21.8984 13.3242 21.8164C14.5195 21.5938 15.4922 21.0606 16.2422 20.2168C16.9922 19.3731 17.5429 18.3477 17.8945 17.1406C18.2578 15.9336 18.4394 14.668 18.4394 13.3438C18.4394 11.9727 18.2578 10.6836 17.8945 9.47658C17.5312 8.26955 16.9687 7.25588 16.207 6.43557C15.457 5.61526 14.4961 5.09378 13.3242 4.87112C12.9023 4.77737 12.416 4.72464 11.8652 4.71292C11.3262 4.68948 10.8808 4.67776 10.5293 4.67776H6.76757V22.0098ZM35.708 26.5273C33.7861 26.5273 32.0986 26.1113 30.6455 25.2793C29.1924 24.4473 28.0557 23.293 27.2353 21.8164C26.4268 20.3399 26.0225 18.6406 26.0225 16.7188C26.0225 14.6445 26.4209 12.8457 27.2178 11.3223C28.0146 9.78713 29.1221 8.59768 30.54 7.75393C31.958 6.91018 33.5986 6.48831 35.4619 6.48831C37.4306 6.48831 39.1006 6.9512 40.4717 7.87698C41.8545 8.79104 42.8799 10.086 43.5478 11.7617C44.2158 13.4375 44.4677 15.4121 44.3037 17.6856H40.1025V16.1387C40.0908 14.0762 39.7275 12.5703 39.0127 11.6211C38.2978 10.6719 37.1728 10.1973 35.6377 10.1973C33.9033 10.1973 32.6142 10.7363 31.7705 11.8145C30.9267 12.8809 30.5049 14.4453 30.5049 16.5078C30.5049 18.4297 30.9267 19.918 31.7705 20.9727C32.6142 22.0273 33.8447 22.5547 35.4619 22.5547C36.5049 22.5547 37.4013 22.3262 38.1513 21.8691C38.9131 21.4004 39.499 20.7266 39.9092 19.8477L44.0927 21.1133C43.3662 22.8242 42.2412 24.1543 40.7177 25.1035C39.206 26.0527 37.5361 26.5273 35.708 26.5273ZM29.1689 17.6856V14.4863H42.2295V17.6856H29.1689ZM48.5774 26V0.160192H52.8137V26H48.5774ZM71.21 26V16.8594C71.21 16.2617 71.169 15.5996 71.0869 14.8731C71.0049 14.1465 70.8115 13.4492 70.5069 12.7813C70.2139 12.1016 69.7686 11.5449 69.1709 11.1113C68.585 10.6778 67.7881 10.461 66.7803 10.461C66.2412 10.461 65.708 10.5488 65.1807 10.7246C64.6533 10.9004 64.1729 11.2051 63.7393 11.6387C63.3174 12.0606 62.9776 12.6465 62.7198 13.3965C62.4619 14.1348 62.333 15.084 62.333 16.2442L59.8194 15.1719C59.8194 13.5547 60.1299 12.0899 60.751 10.7774C61.3838 9.46487 62.3096 8.4219 63.5284 7.64846C64.7471 6.86331 66.2471 6.47073 68.0283 6.47073C69.4346 6.47073 70.5947 6.7051 71.5088 7.17385C72.4229 7.6426 73.1494 8.24026 73.6885 8.96682C74.2276 9.69338 74.626 10.4668 74.8838 11.2871C75.1416 12.1074 75.3057 12.8867 75.376 13.625C75.458 14.3516 75.499 14.9434 75.499 15.4004V26H71.21ZM58.044 26V0.687535H61.8233V14.0117H62.333V26H58.044ZM80.4377 4.13284V0.248083H84.674V4.13284H80.4377ZM80.4377 26V7.01565H84.674V26H80.4377Z" fill="#005250"/>
<path d="M5.92172 59V44.2079H0.243692V41.4542H14.5362V44.2079H8.85822V59H5.92172ZM16.7281 43.8423V41.1495H19.6646V43.8423H16.7281ZM16.7281 59V45.8406H19.6646V59H16.7281ZM29.0291 59.3655C27.6725 59.3655 26.515 59.065 25.5565 58.4639C24.5979 57.8546 23.8628 57.0261 23.3511 55.9782C22.8474 54.9303 22.5915 53.7444 22.5834 52.4203C22.5915 51.0719 22.8555 49.8778 23.3754 48.838C23.9034 47.7902 24.6507 46.9697 25.6174 46.3767C26.584 45.7756 27.7335 45.4751 29.0656 45.4751C30.5603 45.4751 31.8234 45.8528 32.8551 46.6082C33.8948 47.3556 34.5731 48.3791 34.8899 49.6788L31.9656 50.4708C31.7381 49.7641 31.3604 49.2158 30.8324 48.8258C30.3044 48.4278 29.7033 48.2288 29.0291 48.2288C28.2655 48.2288 27.636 48.4116 27.1405 48.7771C26.645 49.1345 26.2794 49.63 26.0439 50.2636C25.8083 50.8972 25.6905 51.6161 25.6905 52.4203C25.6905 53.6713 25.9707 54.6826 26.5312 55.4543C27.0917 56.226 27.9243 56.6118 29.0291 56.6118C29.8089 56.6118 30.4222 56.4331 30.869 56.0757C31.3239 55.7183 31.665 55.2025 31.8925 54.5282L34.8899 55.1984C34.4837 56.5387 33.773 57.5703 32.7576 58.2933C31.7422 59.0081 30.4994 59.3655 29.0291 59.3655ZM37.3072 59L37.3316 41.4542H40.3046V52.1766L45.1175 45.8406H48.7851L43.6798 52.4203L49.2238 59H45.3369L40.3046 52.664V59H37.3072ZM56.189 59.3655C54.8568 59.3655 53.6871 59.0772 52.6798 58.5004C51.6725 57.9237 50.8846 57.1236 50.316 56.1001C49.7555 55.0766 49.4753 53.8987 49.4753 52.5665C49.4753 51.1287 49.7514 49.8818 50.3038 48.8258C50.8562 47.7617 51.6238 46.9372 52.6067 46.3524C53.5896 45.7675 54.7268 45.4751 56.0184 45.4751C57.3831 45.4751 58.5406 45.7959 59.491 46.4377C60.4495 47.0713 61.1603 47.9689 61.6233 49.1305C62.0863 50.2921 62.261 51.6608 62.1473 53.2367H59.2351V52.1644C59.227 50.7348 58.9752 49.691 58.4797 49.033C57.9842 48.375 57.2044 48.046 56.1402 48.046C54.938 48.046 54.0445 48.4197 53.4596 49.167C52.8748 49.9062 52.5823 50.9906 52.5823 52.4203C52.5823 53.7525 52.8748 54.7841 53.4596 55.5152C54.0445 56.2463 54.8974 56.6118 56.0184 56.6118C56.7413 56.6118 57.3628 56.4534 57.8826 56.1366C58.4106 55.8117 58.8168 55.3446 59.1011 54.7354L62.001 55.6127C61.4974 56.7986 60.7176 57.7206 59.6616 58.3786C58.6137 59.0366 57.4562 59.3655 56.189 59.3655ZM51.6563 53.2367V51.0191H60.7095V53.2367H51.6563ZM72.5788 59C71.7096 59.1625 70.8567 59.2315 70.02 59.2071C69.1915 59.1909 68.4482 59.0406 67.7903 58.7563C67.1323 58.4639 66.6327 58.0049 66.2915 57.3794C65.991 56.8108 65.8326 56.23 65.8163 55.637C65.8001 55.0441 65.792 54.3739 65.792 53.6266V42.1852H68.7163V53.456C68.7163 53.984 68.7203 54.447 68.7285 54.845C68.7447 55.2431 68.83 55.568 68.9843 55.8198C69.2768 56.3072 69.7439 56.5793 70.3856 56.6362C71.0273 56.693 71.7584 56.6606 72.5788 56.5387V59ZM63.4038 48.1435V45.8406H72.5788V48.1435H63.4038ZM80.4895 59.3655C78.8649 59.3655 77.5449 59 76.5295 58.2689C75.5141 57.5378 74.8967 56.5103 74.6774 55.1862L77.6748 54.7232C77.8292 55.373 78.1703 55.8848 78.6983 56.2585C79.2263 56.6321 79.8924 56.819 80.6966 56.819C81.4033 56.819 81.9476 56.6809 82.3294 56.4047C82.7193 56.1204 82.9142 55.7345 82.9142 55.2471C82.9142 54.9466 82.8411 54.707 82.6949 54.5282C82.5568 54.3414 82.2481 54.1627 81.7689 53.9921C81.2896 53.8215 80.5545 53.6063 79.5635 53.3463C78.4587 53.0539 77.5814 52.7412 76.9316 52.4081C76.2817 52.067 75.8147 51.6649 75.5303 51.2018C75.246 50.7388 75.1039 50.1783 75.1039 49.5204C75.1039 48.6999 75.3191 47.9851 75.7497 47.3759C76.1802 46.7666 76.7813 46.2996 77.553 45.9746C78.3247 45.6416 79.2345 45.4751 80.2823 45.4751C81.3059 45.4751 82.2116 45.6335 82.9995 45.9503C83.7956 46.2671 84.4373 46.7179 84.9247 47.3028C85.4121 47.8876 85.7126 48.574 85.8263 49.362L82.8289 49.8981C82.7558 49.3376 82.4999 48.8949 82.0613 48.57C81.6308 48.245 81.054 48.0623 80.3311 48.0217C79.6406 47.981 79.0842 48.0866 78.6618 48.3385C78.2394 48.5822 78.0282 48.9274 78.0282 49.3742C78.0282 49.626 78.1135 49.8412 78.2841 50.0199C78.4547 50.1986 78.7958 50.3774 79.3076 50.5561C79.8275 50.7348 80.5991 50.9541 81.6227 51.214C82.6705 51.4821 83.5072 51.7908 84.1327 52.1401C84.7663 52.4812 85.2212 52.8914 85.4974 53.3707C85.7817 53.85 85.9238 54.4308 85.9238 55.1131C85.9238 56.4372 85.4405 57.4769 84.4739 58.2324C83.5153 58.9878 82.1872 59.3655 80.4895 59.3655Z" fill="#EFBA03"/>
</svg>
