<svg xmlns="http://www.w3.org/2000/svg" width="43" height="13" viewBox="0 0 43 13" fill="none">
  <g clip-path="url(#clip0_1835_675)">
    <path d="M6.81281 2.78581V3.57728C6.13755 3.00947 5.26397 2.66504 4.30778 2.66504C2.17023 2.66504 0.4375 4.3774 0.4375 6.48984C0.4375 8.60227 2.17023 10.3146 4.30778 10.3146C5.26397 10.3146 6.13755 9.97076 6.81281 9.40239V10.2598H8.46096V2.78581H6.81281ZM4.42999 8.64224C3.24947 8.64224 2.29244 7.69618 2.29244 6.52981C2.29244 5.36317 3.24947 4.41738 4.42999 4.41738C5.61051 4.41738 6.56754 5.36317 6.56754 6.52981C6.56754 7.69618 5.61051 8.64224 4.42999 8.64224Z" fill="#0066A6"/>
    <path d="M11.6872 2.78613H10.0391V10.2602H11.6872V2.78613Z" fill="#0066A6"/>
    <path d="M11.6872 0.408203H10.0391V2.08031H11.6872V0.408203Z" fill="#0066A6"/>
    <path d="M14.8669 3.73951V2.7859H13.2188V10.2599H14.8669V6.26626C15.0793 5.24499 15.3498 4.26063 16.7875 4.31682C16.7875 3.78648 16.7875 3.25585 16.7875 2.72551C16.1484 2.63717 15.5054 2.91869 14.8669 3.73951Z" fill="#0066A6"/>
    <path d="M21.5594 2.66504C20.6032 2.66504 19.7297 3.00919 19.0544 3.57728V2.78581H17.4062V12.6412H19.0544V9.4024C19.7297 9.9702 20.6032 10.3146 21.5594 10.3146C23.6973 10.3146 25.43 8.60227 25.43 6.48984C25.43 4.3774 23.6973 2.66504 21.5594 2.66504ZM21.4372 8.64224C20.2567 8.64224 19.2997 7.69618 19.2997 6.52981C19.2997 5.36317 20.2567 4.41738 21.4372 4.41738C22.6175 4.41738 23.5748 5.36317 23.5748 6.52981C23.5748 7.69618 22.6175 8.64224 21.4372 8.64224Z" fill="#0066A6"/>
    <path d="M32.3907 2.78587V3.61676C31.7154 3.04923 30.8415 2.70508 29.8859 2.70508C27.7484 2.70508 26.0156 4.41744 26.0156 6.52987C26.0156 8.64202 27.7484 10.3547 29.8859 10.3547C30.8418 10.3547 31.7157 10.0105 32.3907 9.44299V10.2599H34.0388V2.78587H32.3907ZM30.0084 8.6423C28.8282 8.6423 27.8709 7.69624 27.8709 6.52987C27.8709 5.36323 28.8282 4.41744 30.0084 4.41744C31.1892 4.41744 32.1465 5.36323 32.1465 6.52987C32.146 7.69624 31.1889 8.6423 30.0084 8.6423Z" fill="#0066A6"/>
    <path d="M34.6016 2.80273H36.4494L38.344 7.95856L40.3899 2.80273H42.2465L38.1151 12.6319H36.246L37.3041 9.65807L34.6016 2.80273Z" fill="#0066A6"/>
  </g>
  <defs>
    <clipPath id="clip0_1835_675">
      <rect width="43" height="13" fill="white"/>
    </clipPath>
  </defs>
</svg>