<svg xmlns="http://www.w3.org/2000/svg" width="15" height="15" viewBox="0 0 15 15" fill="none">
  <mask id="mask0_1835_488" style="mask-type:alpha" maskUnits="userSpaceOnUse" x="0" y="0" width="15" height="15">
    <rect x="0.046875" width="14.565" height="14.565" fill="#D9D9D9"/>
  </mask>
  <g mask="url(#mask0_1835_488)">
    <path d="M12.1537 12.7446C10.8894 12.7446 9.64025 12.4689 8.40627 11.9177C7.17229 11.3664 6.04957 10.5851 5.03811 9.57363C4.02665 8.56217 3.2453 7.43945 2.69405 6.20547C2.14281 4.97149 1.86719 3.72234 1.86719 2.45802C1.86719 2.27596 1.92788 2.12424 2.04925 2.00286C2.17063 1.88149 2.32234 1.8208 2.50441 1.8208H4.96225C5.10385 1.8208 5.23029 1.86885 5.34155 1.96493C5.45281 2.06102 5.51855 2.17481 5.53878 2.3063L5.93325 4.43036C5.95348 4.5922 5.94842 4.72874 5.91808 4.84C5.88773 4.95126 5.8321 5.04735 5.75119 5.12827L4.27952 6.61511C4.48181 6.98935 4.72203 7.35095 5.00018 7.6999C5.27833 8.04886 5.5843 8.38517 5.91808 8.70883C6.23163 9.02238 6.56035 9.31318 6.90425 9.58121C7.24815 9.84925 7.61227 10.0945 7.99663 10.3171L9.42278 8.89089C9.51381 8.79986 9.63266 8.73159 9.77932 8.68607C9.92598 8.64056 10.0701 8.62792 10.2117 8.64814L12.3054 9.07296C12.447 9.11342 12.5634 9.18675 12.6544 9.29295C12.7454 9.39915 12.7909 9.518 12.7909 9.64949V12.1073C12.7909 12.2894 12.7303 12.4411 12.6089 12.5625C12.4875 12.6839 12.3358 12.7446 12.1537 12.7446ZM3.70298 5.46205L4.70433 4.46071L4.44641 3.03455H3.09611C3.14668 3.44925 3.21748 3.85889 3.30852 4.26347C3.39955 4.66806 3.53104 5.06758 3.70298 5.46205ZM9.13452 10.8936C9.52898 11.0655 9.93104 11.2021 10.3407 11.3032C10.7503 11.4044 11.1625 11.4701 11.5772 11.5005V10.1653L10.151 9.87707L9.13452 10.8936Z" fill="#1C1B1F"/>
  </g>
</svg>