<svg width="16" height="16" viewBox="0 0 16 16" fill="none" xmlns="http://www.w3.org/2000/svg">
<g id="check_circle">
<mask id="mask0_1789_694" style="mask-type:alpha" maskUnits="userSpaceOnUse" x="0" y="0" width="16" height="16">
<rect id="Bounding box" x="0.0703125" y="0.379883" width="15.4286" height="15.4749" fill="#D9D9D9"/>
</mask>
<g mask="url(#mask0_1789_694)">
<path id="check_circle_2" d="M6.88013 11.0833L11.4123 6.53758L10.5123 5.63488L6.88013 9.27793L5.04799 7.44028L4.14799 8.34299L6.88013 11.0833ZM7.78013 14.5652C6.89085 14.5652 6.05513 14.3959 5.27299 14.0574C4.49085 13.7189 3.81049 13.2595 3.23192 12.6792C2.65335 12.0989 2.19531 11.4165 1.85781 10.632C1.52031 9.84749 1.35156 9.00927 1.35156 8.11731C1.35156 7.22535 1.52031 6.38713 1.85781 5.60264C2.19531 4.81815 2.65335 4.13575 3.23192 3.55544C3.81049 2.97513 4.49085 2.51572 5.27299 2.1772C6.05513 1.83869 6.89085 1.66943 7.78013 1.66943C8.66942 1.66943 9.50513 1.83869 10.2873 2.1772C11.0694 2.51572 11.7498 2.97513 12.3283 3.55544C12.9069 4.13575 13.365 4.81815 13.7025 5.60264C14.04 6.38713 14.2087 7.22535 14.2087 8.11731C14.2087 9.00927 14.04 9.84749 13.7025 10.632C13.365 11.4165 12.9069 12.0989 12.3283 12.6792C11.7498 13.2595 11.0694 13.7189 10.2873 14.0574C9.50513 14.3959 8.66942 14.5652 7.78013 14.5652ZM7.78013 13.2756C9.21585 13.2756 10.4319 12.7759 11.4283 11.7765C12.4248 10.7771 12.923 9.55734 12.923 8.11731C12.923 6.67728 12.4248 5.45756 11.4283 4.45814C10.4319 3.45872 9.21585 2.95901 7.78013 2.95901C6.34442 2.95901 5.12835 3.45872 4.13192 4.45814C3.13549 5.45756 2.63728 6.67728 2.63728 8.11731C2.63728 9.55734 3.13549 10.7771 4.13192 11.7765C5.12835 12.7759 6.34442 13.2756 7.78013 13.2756Z" fill="#1C1B1F"/>
</g>
</g>
</svg>
