<svg xmlns="http://www.w3.org/2000/svg" width="24" height="24" viewBox="0 0 24 24" fill="none">
  <mask id="mask0_1234_1146" style="mask-type:alpha" maskUnits="userSpaceOnUse" x="0" y="0" width="24" height="24">
    <rect width="24" height="24" fill="#D9D9D9"/>
  </mask>
  <g mask="url(#mask0_1234_1146)">
    <path d="M12.1642 22C10.3965 22 8.95402 21.7208 7.8367 21.1625C6.71939 20.6042 6.16073 19.8833 6.16073 19C6.16073 18.6 6.28164 18.2292 6.52344 17.8875C6.76525 17.5458 7.10295 17.25 7.53653 17L9.11244 18.475C8.96236 18.5417 8.79976 18.6167 8.62466 18.7C8.44956 18.7833 8.31198 18.8833 8.21192 19C8.42871 19.2667 8.929 19.5 9.71279 19.7C10.4966 19.9 11.3137 20 12.1642 20C13.0147 20 13.836 19.9 14.6281 19.7C15.4203 19.5 15.9247 19.2667 16.1415 19C16.0248 18.8667 15.8747 18.7583 15.6912 18.675C15.5078 18.5917 15.3327 18.5167 15.1659 18.45L16.7168 16.95C17.1838 17.2167 17.5423 17.5208 17.7925 17.8625C18.0426 18.2042 18.1677 18.5833 18.1677 19C18.1677 19.8833 17.609 20.6042 16.4917 21.1625C15.3744 21.7208 13.9319 22 12.1642 22ZM12.1892 16.5C13.8402 15.2833 15.0826 14.0625 15.9164 12.8375C16.7502 11.6125 17.1671 10.3833 17.1671 9.15C17.1671 7.45 16.6251 6.16667 15.5412 5.3C14.4572 4.43333 13.3315 4 12.1642 4C10.9969 4 9.87121 4.43333 8.78725 5.3C7.70329 6.16667 7.16131 7.45 7.16131 9.15C7.16131 10.2667 7.56988 11.4292 8.38702 12.6375C9.20416 13.8458 10.4716 15.1333 12.1892 16.5ZM12.1642 19C9.81285 17.2667 8.05767 15.5833 6.89866 13.95C5.73966 12.3167 5.16016 10.7167 5.16016 9.15C5.16016 7.96667 5.37278 6.92917 5.79803 6.0375C6.22327 5.14583 6.76942 4.4 7.43647 3.8C8.10353 3.2 8.85396 2.75 9.68777 2.45C10.5216 2.15 11.3471 2 12.1642 2C12.9813 2 13.8068 2.15 14.6406 2.45C15.4745 2.75 16.2249 3.2 16.8919 3.8C17.559 4.4 18.1051 5.14583 18.5304 6.0375C18.9556 6.92917 19.1683 7.96667 19.1683 9.15C19.1683 10.7167 18.5888 12.3167 17.4298 13.95C16.2707 15.5833 14.5156 17.2667 12.1642 19ZM12.1642 11C12.7145 11 13.1856 10.8042 13.5775 10.4125C13.9694 10.0208 14.1654 9.55 14.1654 9C14.1654 8.45 13.9694 7.97917 13.5775 7.5875C13.1856 7.19583 12.7145 7 12.1642 7C11.6139 7 11.1428 7.19583 10.7509 7.5875C10.359 7.97917 10.163 8.45 10.163 9C10.163 9.55 10.359 10.0208 10.7509 10.4125C11.1428 10.8042 11.6139 11 12.1642 11Z" fill="#EFBA03"/>
  </g>
</svg>