<svg width="50" height="50" viewBox="0 0 50 50" fill="none" xmlns="http://www.w3.org/2000/svg">
<circle cx="25" cy="25" r="25" fill="url(#paint0_linear_2401_808)" fill-opacity="0.7"/>
<mask id="mask0_2401_808" style="mask-type:alpha" maskUnits="userSpaceOnUse" x="10" y="10" width="30" height="30">
<rect width="30" height="30" transform="matrix(-1 0 0 1 40 10)" fill="#D9D9D9"/>
</mask>
<g mask="url(#mask0_2401_808)">
<path d="M30 27.5H20V26.8125C20 25.8958 20.4583 25.1562 21.375 24.5938C22.2917 24.0312 23.5 23.75 25 23.75C26.5 23.75 27.7083 24.0312 28.625 24.5938C29.5417 25.1562 30 25.8958 30 26.8125V27.5ZM25 22.5C24.3125 22.5 23.724 22.2552 23.2344 21.7656C22.7448 21.276 22.5 20.6875 22.5 20C22.5 19.3125 22.7448 18.724 23.2344 18.2344C23.724 17.7448 24.3125 17.5 25 17.5C25.6875 17.5 26.276 17.7448 26.7656 18.2344C27.2552 18.724 27.5 19.3125 27.5 20C27.5 20.6875 27.2552 21.276 26.7656 21.7656C26.276 22.2552 25.6875 22.5 25 22.5ZM37.5 37.5V15C37.5 14.3125 37.2552 13.724 36.7656 13.2344C36.276 12.7448 35.6875 12.5 35 12.5H15C14.3125 12.5 13.724 12.7448 13.2344 13.2344C12.7448 13.724 12.5 14.3125 12.5 15V30C12.5 30.6875 12.7448 31.276 13.2344 31.7656C13.724 32.2552 14.3125 32.5 15 32.5H32.5L37.5 37.5ZM33.5625 30H15V15H35V31.4062L33.5625 30Z" fill="white"/>
</g>
<defs>
<linearGradient id="paint0_linear_2401_808" x1="25" y1="0" x2="25" y2="50" gradientUnits="userSpaceOnUse">
<stop stop-color="#005250"/>
<stop offset="1" stop-color="#737373"/>
</linearGradient>
</defs>
</svg>
