<svg fill="#000000" width="800px" height="800px" viewBox="0 0 48 48" style="fill-rule:evenodd;clip-rule:evenodd;stroke-linejoin:round;stroke-miterlimit:2;" version="1.1" xml:space="preserve" xmlns="http://www.w3.org/2000/svg" xmlns:serif="http://www.serif.com/" xmlns:xlink="http://www.w3.org/1999/xlink">

<g id="SVGRepo_bgCarrier" stroke-width="0"/>

<g id="SVGRepo_tracerCarrier" stroke-linecap="round" stroke-linejoin="round"/>

<g id="SVGRepo_iconCarrier"> <g transform="matrix(1,0,0,1,-384,-192)"> <g transform="matrix(0.923077,0,0,0.842105,383.231,151.684)"> <path d="M29,57.375C29,56.745 28.772,56.141 28.365,55.696C27.959,55.25 27.408,55 26.833,55C21.937,55 10.063,55 5.167,55C4.592,55 4.041,55.25 3.635,55.696C3.228,56.141 3,56.745 3,57.375C3,61.025 3,67.975 3,71.625C3,72.255 3.228,72.859 3.635,73.304C4.041,73.75 4.592,74 5.167,74C10.063,74 21.937,74 26.833,74C27.408,74 27.959,73.75 28.365,73.304C28.772,72.859 29,72.255 29,71.625C29,67.975 29,61.025 29,57.375Z" style="fill:#ffffff;"/> </g> <g transform="matrix(1.11111,0,0,1.11111,-48.2222,-24.2222)"> <circle cx="411.5" cy="213.5" r="4.5" style="fill:#ffffff;"/> </g> <path d="M408,197L388,197C387.204,197 386.441,197.316 385.879,197.879C385.316,198.441 385,199.204 385,200L385,212C385,212.796 385.316,213.559 385.879,214.121C386.441,214.684 387.204,215 388,215L403.342,215C404.166,217.329 406.39,219 409,219C412.311,219 415,216.311 415,213C415,210.39 413.329,208.166 411,207.342L411,200C411,199.204 410.684,198.441 410.121,197.879C409.559,197.316 408.796,197 408,197ZM409,209C411.208,209 413,210.792 413,213C413,215.208 411.208,217 409,217C406.792,217 405,215.208 405,213C405,210.792 406.792,209 409,209ZM408,211L408,213C408,213.552 408.448,214 409,214L411,214C411.552,214 412,213.552 412,213C412,212.448 411.552,212 411,212L410,212C410,212 410,211 410,211C410,210.448 409.552,210 409,210C408.448,210 408,210.448 408,211ZM409,203L408,203C406.344,203 405,201.656 405,200L405,199L391,199L391,200C391,201.656 389.656,203 388,203L387,203L387,209L388,209C389.656,209 391,210.344 391,212L391,213L403,213C403,209.689 405.689,207 409,207L409,203ZM387,211L387,212C387,212.265 387.105,212.52 387.293,212.707C387.48,212.895 387.735,213 388,213L389,213L389,212C389,211.448 388.552,211 388,211L387,211ZM398,201C395.24,201 393,203.24 393,206C393,208.76 395.24,211 398,211C400.76,211 403,208.76 403,206C403,203.24 400.76,201 398,201ZM398,203C399.656,203 401,204.344 401,206C401,207.656 399.656,209 398,209C396.344,209 395,207.656 395,206C395,204.344 396.344,203 398,203ZM407,199L407,200C407,200.552 407.448,201 408,201L409,201L409,200C409,199.735 408.895,199.48 408.707,199.293C408.52,199.105 408.265,199 408,199L407,199ZM389,199L388,199C387.735,199 387.48,199.105 387.293,199.293C387.105,199.48 387,199.735 387,200L387,201L388,201C388.552,201 389,200.552 389,200L389,199Z" style="fill:#000000;"/> </g> </g>

</svg>