<svg xmlns="http://www.w3.org/2000/svg" width="15" height="15" viewBox="0 0 15 15" fill="none">
  <mask id="mask0_1835_492" style="mask-type:alpha" maskUnits="userSpaceOnUse" x="0" y="0" width="15" height="15">
    <rect x="0.046875" y="0.0986328" width="14.565" height="14.565" fill="#D9D9D9"/>
  </mask>
  <g mask="url(#mask0_1835_492)">
    <path d="M6.48084 10.1729L10.7593 5.89441L9.90969 5.04478L6.48084 8.47363L4.75125 6.74403L3.90162 7.59366L6.48084 10.1729ZM7.33047 13.45C6.49096 13.45 5.70202 13.2907 4.96366 12.9721C4.22529 12.6535 3.58302 12.2211 3.03683 11.6749C2.49064 11.1287 2.05824 10.4864 1.73963 9.74806C1.42102 9.0097 1.26172 8.22076 1.26172 7.38125C1.26172 6.54174 1.42102 5.7528 1.73963 5.01444C2.05824 4.27607 2.49064 3.6338 3.03683 3.08761C3.58302 2.54142 4.22529 2.10902 4.96366 1.79041C5.70202 1.4718 6.49096 1.3125 7.33047 1.3125C8.16998 1.3125 8.95892 1.4718 9.69728 1.79041C10.4356 2.10902 11.0779 2.54142 11.6241 3.08761C12.1703 3.6338 12.6027 4.27607 12.9213 5.01444C13.2399 5.7528 13.3992 6.54174 13.3992 7.38125C13.3992 8.22076 13.2399 9.0097 12.9213 9.74806C12.6027 10.4864 12.1703 11.1287 11.6241 11.6749C11.0779 12.2211 10.4356 12.6535 9.69728 12.9721C8.95892 13.2907 8.16998 13.45 7.33047 13.45ZM7.33047 12.2362C8.68582 12.2362 9.83383 11.7659 10.7745 10.8253C11.7151 9.88461 12.1855 8.7366 12.1855 7.38125C12.1855 6.0259 11.7151 4.87789 10.7745 3.93723C9.83383 2.99658 8.68582 2.52625 7.33047 2.52625C5.97511 2.52625 4.82711 2.99658 3.88645 3.93723C2.9458 4.87789 2.47547 6.0259 2.47547 7.38125C2.47547 8.7366 2.9458 9.88461 3.88645 10.8253C4.82711 11.7659 5.97511 12.2362 7.33047 12.2362Z" fill="#34A853"/>
  </g>
</svg>